<svg version="1.1" id="Layer_1" xmlns="http://www.w3.org/2000/svg" xmlns:xlink="http://www.w3.org/1999/xlink" x="0px" y="0px"
	 width="100%" viewBox="0 0 1254 1254" enable-background="new 0 0 1254 1254" xml:space="preserve">
<path fill="#020C20" opacity="1.000000" stroke="none" 
	d="
M1.000004,855.000000 
	C1.000000,570.382874 1.000000,285.765686 1.000000,1.074267 
	C418.877808,1.074267 836.755615,1.074267 1255.000000,1.074267 
	C1255.000000,95.361053 1255.000000,189.722580 1254.657837,284.656128 
	C1214.098755,303.036804 1173.824951,320.718658 1133.677612,338.682892 
	C1067.270508,368.397339 1000.895020,398.183289 934.597961,428.142303 
	C856.600708,463.388580 778.665466,498.772522 700.769470,534.242004 
	C618.493347,571.705933 536.281189,609.310364 454.066681,646.909363 
	C360.619263,689.645508 267.114227,732.257202 173.801300,775.285339 
	C118.478165,800.795715 63.483723,827.018677 8.310184,852.854309 
	C6.036980,853.918823 3.443989,854.300293 1.000004,855.000000 
M101.771278,391.485046 
	C101.516190,392.410095 101.039734,393.334808 101.038292,394.260254 
	C100.999702,418.990112 100.992401,443.720093 101.067665,468.449768 
	C101.071159,469.599915 101.886971,470.747528 103.031822,472.255524 
	C118.276741,472.255524 133.521652,472.255524 149.207825,472.255524 
	C149.207825,459.295563 149.207825,446.686462 149.207825,433.959412 
	C188.355576,433.959412 227.057495,433.959412 266.151276,433.959412 
	C266.151276,446.908081 266.151276,459.501801 266.151276,472.347595 
	C281.629089,472.347595 296.715210,472.347595 311.985291,472.347595 
	C311.985291,445.193207 311.985291,418.275482 311.985291,390.817657 
	C304.395355,390.817657 297.010223,390.817657 289.303314,390.817657 
	C289.303314,388.635529 289.303345,386.991119 289.303345,385.346710 
	C289.303467,340.851440 289.312225,296.356171 289.285187,251.860901 
	C289.283295,248.710678 289.017883,245.560623 288.477539,241.663345 
	C287.864655,241.451660 287.251953,241.055099 286.638885,241.054642 
	C239.984268,241.019623 193.329575,241.002213 146.675110,241.089981 
	C145.538635,241.092117 144.404404,242.291367 143.380920,243.741638 
	C142.882721,267.042450 142.792938,290.361359 141.759018,313.638397 
	C140.908615,332.783966 138.528870,351.785614 131.584106,369.924103 
	C126.446190,383.343506 118.661789,392.860199 101.771278,391.485046 
M389.929810,433.623322 
	C402.029236,434.104584 414.216919,435.758850 426.212280,434.856537 
	C469.618500,431.591461 503.940826,400.700378 511.465912,357.835999 
	C517.701477,322.316925 509.644226,290.503265 482.563049,265.276611 
	C465.738525,249.604279 445.087646,242.238708 422.336090,240.537842 
	C366.276031,236.346909 319.834198,269.394073 313.385406,326.580017 
	C307.530182,378.502228 339.149384,423.289398 389.929810,433.623322 
z"/>
<path fill="#020D21" opacity="1.000000" stroke="none" 
	d="
M1255.000000,463.000000 
	C1255.000000,726.951294 1255.000000,990.902588 1255.000000,1254.927002 
	C837.000000,1254.927002 419.000000,1254.927002 1.000000,1254.927002 
	C1.000000,1185.557129 1.000000,1116.236450 1.370553,1046.491577 
	C2.963838,1045.547241 4.205121,1045.066650 5.406605,1044.501343 
	C71.082130,1013.606323 136.702530,982.593506 202.439880,951.830505 
	C285.377014,913.018738 368.392303,874.373779 451.405273,835.724304 
	C537.138123,795.808533 622.899597,755.954224 708.664917,716.108337 
	C807.076172,670.387268 905.517700,624.731567 1003.922913,578.997498 
	C1086.087036,540.811462 1168.216187,502.550079 1250.376465,464.355865 
	C1251.816528,463.686462 1253.454468,463.442505 1255.000000,463.000000 
M835.174805,1005.141968 
	C847.787781,1005.141968 860.400757,1005.141968 873.530212,1005.141968 
	C873.530212,986.383484 873.530212,967.930603 873.530212,949.477722 
	C873.530212,931.057007 873.530212,912.636353 873.530212,893.823303 
	C894.506226,893.823303 914.774170,893.823303 935.234680,893.823303 
	C935.234680,882.060608 935.234680,870.700684 935.234680,859.196106 
	C901.466614,859.196106 868.140625,859.196106 833.966919,859.451599 
	C833.645813,860.845154 833.045410,862.238403 833.044067,863.632324 
	C832.998840,909.257568 832.997803,954.882935 833.075500,1000.508118 
	C833.077942,1001.965271 833.976013,1003.420837 835.174805,1005.141968 
M704.205811,865.734253 
	C667.735107,884.334229 657.307007,925.282532 668.979309,958.449890 
	C679.214233,987.532898 701.257935,1002.892090 731.226562,1006.968140 
	C758.010864,1010.610962 781.934387,1003.900024 801.152710,984.251648 
	C817.185364,967.860168 822.740295,947.469055 820.973572,925.050781 
	C819.108093,901.377930 808.576477,882.199341 788.326477,869.516235 
	C761.494263,852.710510 733.377380,852.573914 704.205811,865.734253 
M631.035217,917.568054 
	C644.295959,898.320190 657.556702,879.072327 671.292419,859.134949 
	C656.943176,859.134949 643.644165,859.285095 630.352661,859.034302 
	C626.823608,858.967712 625.007141,860.334229 623.203186,863.072693 
	C613.132202,878.360718 602.928223,893.561707 592.664612,908.721313 
	C591.746948,910.076782 590.169495,911.688782 588.741211,911.858398 
	C585.018738,912.300659 581.208862,912.007324 576.967407,912.007324 
	C576.967407,894.083130 576.967407,876.839355 576.967407,859.494812 
	C563.750610,859.494812 551.031006,859.494812 538.325500,859.494812 
	C538.325500,908.233398 538.325500,956.623840 538.325500,1005.179321 
	C551.271790,1005.179321 563.893188,1005.179321 577.053589,1005.179321 
	C577.053589,985.889526 577.053589,966.804077 577.053589,947.178345 
	C579.369629,947.178345 581.205688,947.452271 582.929443,947.128540 
	C588.895569,946.007812 592.080688,948.739624 595.126709,953.771423 
	C604.949707,969.997925 615.437195,985.820923 625.490112,1001.910889 
	C627.119995,1004.519470 628.908936,1005.467651 631.885376,1005.425110 
	C643.714844,1005.255676 655.547058,1005.284973 667.378296,1005.243713 
	C669.574768,1005.236084 671.771240,1005.242615 674.689209,1005.242615 
	C673.399292,1003.187988 672.715454,1002.076050 672.009827,1000.978088 
	C658.062500,979.273499 644.098938,957.579285 630.170227,935.862732 
	C624.392151,926.854126 624.425537,926.832703 631.035217,917.568054 
M1031.713135,884.761169 
	C1028.753662,877.355469 1025.700073,869.985291 1022.887146,862.524353 
	C1021.932800,859.993225 1020.707886,858.996643 1017.844543,859.048096 
	C1006.352539,859.254700 994.852661,859.276184 983.360962,859.069702 
	C980.131897,859.011780 978.854919,860.162659 977.658569,863.060242 
	C966.666687,889.683228 955.446960,916.212036 944.354858,942.793823 
	C935.774780,963.355225 927.282532,983.953186 918.412292,1005.352600 
	C931.680298,1005.352600 944.287598,1005.431091 956.889465,1005.204773 
	C957.906372,1005.186523 959.275085,1003.234253 959.815613,1001.909485 
	C962.267578,995.899597 964.289795,989.707764 966.915588,983.780212 
	C967.569214,982.304749 969.885559,980.652466 971.454712,980.635193 
	C989.778381,980.433838 1008.105591,980.593811 1026.430908,980.480652 
	C1029.296509,980.463013 1030.531738,981.470581 1031.393311,984.102173 
	C1033.358032,990.103455 1035.798584,995.949341 1037.743896,1001.956177 
	C1038.621826,1004.666565 1039.984009,1005.476501 1042.767700,1005.386719 
	C1049.091187,1005.182800 1055.427002,1005.366760 1061.757812,1005.378540 
	C1067.495117,1005.389221 1073.232300,1005.380737 1079.422729,1005.380737 
	C1063.382568,964.862732 1047.672363,925.178284 1031.713135,884.761169 
M1137.329712,912.806274 
	C1133.164551,916.130676 1128.863770,919.300598 1124.862793,922.812134 
	C1116.850098,929.844543 1113.822266,938.894714 1114.077271,949.581848 
	C1126.139404,949.581848 1137.548584,949.581848 1149.571777,949.581848 
	C1148.784912,939.298340 1155.398438,933.756958 1162.374023,928.269714 
	C1166.145508,925.302917 1169.788330,922.020569 1172.876465,918.363159 
	C1187.951294,900.509155 1183.627686,873.721191 1163.170288,863.027832 
	C1141.254761,851.572205 1118.575317,851.810364 1096.551514,863.175110 
	C1086.423584,868.401245 1079.757568,876.974792 1077.266968,888.855164 
	C1086.644165,893.556396 1095.788940,898.141174 1105.010864,902.764587 
	C1106.474854,900.596863 1107.440918,899.058655 1108.512451,897.597961 
	C1114.517944,889.410889 1124.560791,886.029114 1134.235596,888.903381 
	C1142.047119,891.224121 1145.566528,898.297119 1142.326660,905.781555 
	C1141.297852,908.158569 1139.369751,910.146362 1137.329712,912.806274 
M1153.350952,988.560120 
	C1155.684570,976.830200 1150.832520,966.948547 1140.700562,962.796570 
	C1130.556152,958.639465 1118.651978,961.889038 1113.149658,970.398376 
	C1108.196411,978.058655 1107.642212,986.104614 1112.314331,993.947144 
	C1116.990967,1001.797241 1124.471802,1005.280640 1133.439697,1004.460388 
	C1142.949341,1003.590515 1149.998413,998.866028 1153.350952,988.560120 
z"/>
<path fill="#F86402" opacity="1.000000" stroke="none" 
	d="
M1255.000000,462.531372 
	C1253.454468,463.442505 1251.816528,463.686462 1250.376465,464.355865 
	C1168.216187,502.550079 1086.087036,540.811462 1003.922913,578.997498 
	C905.517700,624.731567 807.076172,670.387268 708.664917,716.108337 
	C622.899597,755.954224 537.138123,795.808533 451.405273,835.724304 
	C368.392303,874.373779 285.377014,913.018738 202.439880,951.830505 
	C136.702530,982.593506 71.082130,1013.606323 5.406605,1044.501343 
	C4.205121,1045.066650 2.963838,1045.547241 1.370553,1046.033691 
	C1.000000,1017.645752 1.000000,989.291565 1.291173,960.662109 
	C2.483387,961.693970 3.384428,963.001160 4.322136,964.361450 
	C18.396448,957.707153 32.085449,951.267944 45.745258,944.767334 
	C59.503906,938.219788 73.233513,931.611145 87.151787,924.945007 
	C83.975632,918.593323 81.113312,912.869263 78.235710,907.114624 
	C53.655350,918.772583 29.637054,930.176880 5.596560,941.534119 
	C4.155180,942.214966 2.536282,942.520081 1.000002,943.000000 
	C1.000000,913.979126 1.000000,884.958191 1.000004,855.468628 
	C3.443989,854.300293 6.036980,853.918823 8.310184,852.854309 
	C63.483723,827.018677 118.478165,800.795715 173.801300,775.285339 
	C267.114227,732.257202 360.619263,689.645508 454.066681,646.909363 
	C536.281189,609.310364 618.493347,571.705933 700.769470,534.242004 
	C778.665466,498.772522 856.600708,463.388580 934.597961,428.142303 
	C1000.895020,398.183289 1067.270508,368.397339 1133.677612,338.682892 
	C1173.824951,320.718658 1214.098755,303.036804 1254.657837,285.114075 
	C1255.000000,344.020905 1255.000000,403.041779 1255.000000,462.531372 
M166.828171,887.250305 
	C188.077438,877.114929 209.326721,866.979553 230.814636,856.730408 
	C227.779861,850.449524 225.001846,844.700073 222.203156,838.907837 
	C194.165436,852.286011 166.761688,865.361633 139.073105,878.573181 
	C142.020660,884.694031 144.789032,890.442749 147.617783,896.316895 
	C154.162964,893.240051 160.161194,890.420349 166.828171,887.250305 
M327.029327,790.586365 
	C312.340607,797.481934 297.651886,804.377563 282.766235,811.365601 
	C285.757294,817.563965 288.477966,823.202087 291.272980,828.994263 
	C319.248108,815.869019 346.747131,802.967102 374.480072,789.955505 
	C371.440887,783.712585 368.695953,778.074097 365.807953,772.141602 
	C352.879608,778.275146 340.284210,784.250671 327.029327,790.586365 
M464.320251,726.912109 
	C451.744812,732.780579 439.169342,738.648987 426.403748,744.606201 
	C429.387238,750.796997 432.026794,756.274292 434.842590,762.117188 
	C462.738007,749.081299 490.229553,736.234070 518.005005,723.254272 
	C515.108276,717.179565 512.424072,711.550598 509.652557,705.738647 
	C494.501160,712.817566 479.753479,719.707825 464.320251,726.912109 
M946.821167,519.786560 
	C944.594055,515.394592 942.367004,511.002655 940.068054,506.468933 
	C912.252625,519.587402 884.926575,532.475159 857.239868,545.532898 
	C860.094421,551.446411 862.796143,557.043274 865.625427,562.904358 
	C892.590576,550.215332 919.039307,537.730713 945.540833,525.359009 
	C948.162598,524.135071 948.700134,522.795776 946.821167,519.786560 
M1160.413330,424.889771 
	C1184.993408,413.227814 1209.573364,401.565887 1234.553833,389.713959 
	C1231.646240,383.656586 1228.972290,378.086121 1226.234497,372.382599 
	C1198.028076,385.772278 1170.472534,398.853027 1142.666016,412.052856 
	C1145.596313,418.076019 1148.314209,423.662354 1151.071777,429.330383 
	C1154.331299,427.754578 1157.019653,426.454926 1160.413330,424.889771 
M1024.167603,488.584473 
	C1046.550049,478.085510 1068.932617,467.586578 1091.603882,456.952148 
	C1088.649780,450.876251 1085.991821,445.409729 1083.167969,439.601868 
	C1055.278198,452.754974 1027.733032,465.745514 1000.054993,478.798676 
	C1002.977600,484.804840 1005.652466,490.301819 1008.431030,496.011841 
	C1013.614014,493.573578 1018.554749,491.249298 1024.167603,488.584473 
M781.030029,580.585205 
	C758.774597,590.965820 736.519104,601.346375 713.786682,611.949463 
	C716.654846,617.877808 719.361389,623.471924 722.171997,629.281250 
	C750.222290,616.205994 777.715210,603.390503 805.550110,590.415588 
	C802.590454,584.454651 799.893433,579.022644 796.999512,573.194092 
	C791.599365,575.669739 786.641663,577.942566 781.030029,580.585205 
M612.344971,679.802246 
	C628.704468,672.144043 645.063965,664.485840 661.726685,656.685608 
	C658.756958,650.670959 656.064148,645.217285 653.196960,639.410278 
	C625.445374,652.377686 598.103760,665.153564 570.295410,678.147522 
	C573.109985,684.016785 575.789490,689.604370 578.577209,695.417725 
	C589.951843,690.147217 600.801270,685.120117 612.344971,679.802246 
z"/>
<path fill="#FDFAF7" opacity="1.000000" stroke="none" 
	d="
M1.000002,943.467590 
	C2.536282,942.520081 4.155180,942.214966 5.596560,941.534119 
	C29.637054,930.176880 53.655350,918.772583 78.235710,907.114624 
	C81.113312,912.869263 83.975632,918.593323 87.151787,924.945007 
	C73.233513,931.611145 59.503906,938.219788 45.745258,944.767334 
	C32.085449,951.267944 18.396448,957.707153 4.322136,964.361450 
	C3.384428,963.001160 2.483387,961.693970 1.291173,960.193420 
	C1.000000,954.645081 1.000000,949.290100 1.000002,943.467590 
z"/>
<path fill="#FCFBFC" opacity="1.000000" stroke="none" 
	d="
M288.875000,242.410492 
	C289.017883,245.560623 289.283295,248.710678 289.285187,251.860901 
	C289.312225,296.356171 289.303467,340.851440 289.303345,385.346710 
	C289.303345,386.991119 289.303314,388.635529 289.303314,390.817657 
	C297.010223,390.817657 304.395355,390.817657 311.985291,390.817657 
	C311.985291,418.275482 311.985291,445.193207 311.985291,472.347595 
	C296.715210,472.347595 281.629089,472.347595 266.151276,472.347595 
	C266.151276,459.501801 266.151276,446.908081 266.151276,433.959412 
	C227.057495,433.959412 188.355576,433.959412 149.207825,433.959412 
	C149.207825,446.686462 149.207825,459.295563 149.207825,472.255524 
	C133.521652,472.255524 118.276741,472.255524 102.769775,471.622070 
	C102.523209,444.368225 102.538696,417.747833 102.554169,391.127411 
	C118.661789,392.860199 126.446190,383.343506 131.584106,369.924103 
	C138.528870,351.785614 140.908615,332.783966 141.759018,313.638397 
	C142.792938,290.361359 142.882721,267.042450 143.757660,243.196777 
	C148.123535,242.595901 152.112656,242.494141 156.101837,242.490936 
	C200.359573,242.455322 244.617294,242.434952 288.875000,242.410492 
M239.982666,289.690247 
	C239.982666,288.069885 239.982666,286.449554 239.982666,284.696625 
	C222.758987,284.696625 206.024734,284.696625 189.186783,284.696625 
	C187.838272,320.924805 187.193192,356.923920 172.329300,390.504395 
	C195.007355,390.504395 217.402985,390.504395 239.984116,390.504395 
	C239.984116,356.948944 239.984116,323.798096 239.982666,289.690247 
z"/>
<path fill="#FCFBFC" opacity="1.000000" stroke="none" 
	d="
M389.524353,433.505859 
	C339.149384,423.289398 307.530182,378.502228 313.385406,326.580017 
	C319.834198,269.394073 366.276031,236.346909 422.336090,240.537842 
	C445.087646,242.238708 465.738525,249.604279 482.563049,265.276611 
	C509.644226,290.503265 517.701477,322.316925 511.465912,357.835999 
	C503.940826,400.700378 469.618500,431.591461 426.212280,434.856537 
	C414.216919,435.758850 402.029236,434.104584 389.524353,433.505859 
M427.720825,388.366699 
	C448.747955,380.892395 460.135590,365.508636 462.529846,343.839874 
	C466.272064,309.971497 439.612549,283.490540 408.639465,286.107849 
	C384.474670,288.149841 366.049042,307.331818 363.306427,333.559265 
	C359.515045,369.816467 392.560089,398.428131 427.720825,388.366699 
z"/>
<path fill="#000006" opacity="1.000000" stroke="none" 
	d="
M288.676270,242.036926 
	C244.617294,242.434952 200.359573,242.455322 156.101837,242.490936 
	C152.112656,242.494141 148.123535,242.595901 143.701752,242.792084 
	C144.404404,242.291367 145.538635,241.092117 146.675110,241.089981 
	C193.329575,241.002213 239.984268,241.019623 286.638885,241.054642 
	C287.251953,241.055099 287.864655,241.451660 288.676270,242.036926 
z"/>
<path fill="#000006" opacity="1.000000" stroke="none" 
	d="
M102.162727,391.306213 
	C102.538696,417.747833 102.523209,444.368225 102.416100,471.442505 
	C101.886971,470.747528 101.071159,469.599915 101.067665,468.449768 
	C100.992401,443.720093 100.999702,418.990112 101.038292,394.260254 
	C101.039734,393.334808 101.516190,392.410095 102.162727,391.306213 
z"/>
<path fill="#FBFBFB" opacity="1.000000" stroke="none" 
	d="
M704.521606,865.537170 
	C733.377380,852.573914 761.494263,852.710510 788.326477,869.516235 
	C808.576477,882.199341 819.108093,901.377930 820.973572,925.050781 
	C822.740295,947.469055 817.185364,967.860168 801.152710,984.251648 
	C781.934387,1003.900024 758.010864,1010.610962 731.226562,1006.968140 
	C701.257935,1002.892090 679.214233,987.532898 668.979309,958.449890 
	C657.307007,925.282532 667.735107,884.334229 704.521606,865.537170 
M773.930847,957.354797 
	C776.048401,952.872681 778.829529,948.580139 780.173401,943.876953 
	C787.659912,917.675476 768.399353,891.422668 742.504150,892.160522 
	C724.051819,892.686218 708.737122,905.175537 704.874390,922.847961 
	C700.672241,942.073425 709.302551,960.969788 725.999878,969.103638 
	C742.578918,977.179871 760.984558,972.849792 773.930847,957.354797 
z"/>
<path fill="#FBFBFB" opacity="1.000000" stroke="none" 
	d="
M630.837158,917.867310 
	C624.425537,926.832703 624.392151,926.854126 630.170227,935.862732 
	C644.098938,957.579285 658.062500,979.273499 672.009827,1000.978088 
	C672.715454,1002.076050 673.399292,1003.187988 674.689209,1005.242615 
	C671.771240,1005.242615 669.574768,1005.236084 667.378296,1005.243713 
	C655.547058,1005.284973 643.714844,1005.255676 631.885376,1005.425110 
	C628.908936,1005.467651 627.119995,1004.519470 625.490112,1001.910889 
	C615.437195,985.820923 604.949707,969.997925 595.126709,953.771423 
	C592.080688,948.739624 588.895569,946.007812 582.929443,947.128540 
	C581.205688,947.452271 579.369629,947.178345 577.053589,947.178345 
	C577.053589,966.804077 577.053589,985.889526 577.053589,1005.179321 
	C563.893188,1005.179321 551.271790,1005.179321 538.325500,1005.179321 
	C538.325500,956.623840 538.325500,908.233398 538.325500,859.494812 
	C551.031006,859.494812 563.750610,859.494812 576.967407,859.494812 
	C576.967407,876.839355 576.967407,894.083130 576.967407,912.007324 
	C581.208862,912.007324 585.018738,912.300659 588.741211,911.858398 
	C590.169495,911.688782 591.746948,910.076782 592.664612,908.721313 
	C602.928223,893.561707 613.132202,878.360718 623.203186,863.072693 
	C625.007141,860.334229 626.823608,858.967712 630.352661,859.034302 
	C643.644165,859.285095 656.943176,859.134949 671.292419,859.134949 
	C657.556702,879.072327 644.295959,898.320190 630.837158,917.867310 
z"/>
<path fill="#FBFBFB" opacity="1.000000" stroke="none" 
	d="
M1031.837646,885.127563 
	C1047.672363,925.178284 1063.382568,964.862732 1079.422729,1005.380737 
	C1073.232300,1005.380737 1067.495117,1005.389221 1061.757812,1005.378540 
	C1055.427002,1005.366760 1049.091187,1005.182800 1042.767700,1005.386719 
	C1039.984009,1005.476501 1038.621826,1004.666565 1037.743896,1001.956177 
	C1035.798584,995.949341 1033.358032,990.103455 1031.393311,984.102173 
	C1030.531738,981.470581 1029.296509,980.463013 1026.430908,980.480652 
	C1008.105591,980.593811 989.778381,980.433838 971.454712,980.635193 
	C969.885559,980.652466 967.569214,982.304749 966.915588,983.780212 
	C964.289795,989.707764 962.267578,995.899597 959.815613,1001.909485 
	C959.275085,1003.234253 957.906372,1005.186523 956.889465,1005.204773 
	C944.287598,1005.431091 931.680298,1005.352600 918.412292,1005.352600 
	C927.282532,983.953186 935.774780,963.355225 944.354858,942.793823 
	C955.446960,916.212036 966.666687,889.683228 977.658569,863.060242 
	C978.854919,860.162659 980.131897,859.011780 983.360962,859.069702 
	C994.852661,859.276184 1006.352539,859.254700 1017.844543,859.048096 
	C1020.707886,858.996643 1021.932800,859.993225 1022.887146,862.524353 
	C1025.700073,869.985291 1028.753662,877.355469 1031.837646,885.127563 
M1005.484131,947.367188 
	C1009.554016,947.367188 1013.623962,947.367188 1018.362488,947.367188 
	C1012.050110,930.461243 1006.056030,914.407654 999.587280,897.083008 
	C992.931885,914.546753 986.808044,930.615723 980.424866,947.365234 
	C988.939880,947.365234 996.713989,947.365234 1005.484131,947.367188 
z"/>
<path fill="#FAFAFB" opacity="1.000000" stroke="none" 
	d="
M834.814575,859.196106 
	C868.140625,859.196106 901.466614,859.196106 935.234680,859.196106 
	C935.234680,870.700684 935.234680,882.060608 935.234680,893.823303 
	C914.774170,893.823303 894.506226,893.823303 873.530212,893.823303 
	C873.530212,912.636353 873.530212,931.057007 873.530212,949.477722 
	C873.530212,967.930603 873.530212,986.383484 873.530212,1005.141968 
	C860.400757,1005.141968 847.787781,1005.141968 834.867188,1004.552002 
	C834.581604,987.986694 834.597778,972.011353 834.626892,956.035950 
	C834.685730,923.755981 834.751648,891.476074 834.814575,859.196106 
z"/>
<path fill="#F46302" opacity="1.000000" stroke="none" 
	d="
M1137.591431,912.559326 
	C1139.369751,910.146362 1141.297852,908.158569 1142.326660,905.781555 
	C1145.566528,898.297119 1142.047119,891.224121 1134.235596,888.903381 
	C1124.560791,886.029114 1114.517944,889.410889 1108.512451,897.597961 
	C1107.440918,899.058655 1106.474854,900.596863 1105.010864,902.764587 
	C1095.788940,898.141174 1086.644165,893.556396 1077.266968,888.855164 
	C1079.757568,876.974792 1086.423584,868.401245 1096.551514,863.175110 
	C1118.575317,851.810364 1141.254761,851.572205 1163.170288,863.027832 
	C1183.627686,873.721191 1187.951294,900.509155 1172.876465,918.363159 
	C1169.788330,922.020569 1166.145508,925.302917 1162.374023,928.269714 
	C1155.398438,933.756958 1148.784912,939.298340 1149.571777,949.581848 
	C1137.548584,949.581848 1126.139404,949.581848 1114.077271,949.581848 
	C1113.822266,938.894714 1116.850098,929.844543 1124.862793,922.812134 
	C1128.863770,919.300598 1133.164551,916.130676 1137.591431,912.559326 
z"/>
<path fill="#F36203" opacity="1.000000" stroke="none" 
	d="
M1153.235474,988.956543 
	C1149.998413,998.866028 1142.949341,1003.590515 1133.439697,1004.460388 
	C1124.471802,1005.280640 1116.990967,1001.797241 1112.314331,993.947144 
	C1107.642212,986.104614 1108.196411,978.058655 1113.149658,970.398376 
	C1118.651978,961.889038 1130.556152,958.639465 1140.700562,962.796570 
	C1150.832520,966.948547 1155.684570,976.830200 1153.235474,988.956543 
z"/>
<path fill="#000006" opacity="1.000000" stroke="none" 
	d="
M834.390747,859.323853 
	C834.751648,891.476074 834.685730,923.755981 834.626892,956.035950 
	C834.597778,972.011353 834.581604,987.986694 834.508057,1004.419617 
	C833.976013,1003.420837 833.077942,1001.965271 833.075500,1000.508118 
	C832.997803,954.882935 832.998840,909.257568 833.044067,863.632324 
	C833.045410,862.238403 833.645813,860.845154 834.390747,859.323853 
z"/>
<path fill="#FEFAF8" opacity="1.000000" stroke="none" 
	d="
M166.493805,887.425476 
	C160.161194,890.420349 154.162964,893.240051 147.617783,896.316895 
	C144.789032,890.442749 142.020660,884.694031 139.073105,878.573181 
	C166.761688,865.361633 194.165436,852.286011 222.203156,838.907837 
	C225.001846,844.700073 227.779861,850.449524 230.814636,856.730408 
	C209.326721,866.979553 188.077438,877.114929 166.493805,887.425476 
z"/>
<path fill="#FDFAF7" opacity="1.000000" stroke="none" 
	d="
M327.359070,790.406311 
	C340.284210,784.250671 352.879608,778.275146 365.807953,772.141602 
	C368.695953,778.074097 371.440887,783.712585 374.480072,789.955505 
	C346.747131,802.967102 319.248108,815.869019 291.272980,828.994263 
	C288.477966,823.202087 285.757294,817.563965 282.766235,811.365601 
	C297.651886,804.377563 312.340607,797.481934 327.359070,790.406311 
z"/>
<path fill="#FDF9F7" opacity="1.000000" stroke="none" 
	d="
M464.663025,726.755127 
	C479.753479,719.707825 494.501160,712.817566 509.652557,705.738647 
	C512.424072,711.550598 515.108276,717.179565 518.005005,723.254272 
	C490.229553,736.234070 462.738007,749.081299 434.842590,762.117188 
	C432.026794,756.274292 429.387238,750.796997 426.403748,744.606201 
	C439.169342,738.648987 451.744812,732.780579 464.663025,726.755127 
z"/>
<path fill="#FDF9F7" opacity="1.000000" stroke="none" 
	d="
M946.978027,520.134033 
	C948.700134,522.795776 948.162598,524.135071 945.540833,525.359009 
	C919.039307,537.730713 892.590576,550.215332 865.625427,562.904358 
	C862.796143,557.043274 860.094421,551.446411 857.239868,545.532898 
	C884.926575,532.475159 912.252625,519.587402 940.068054,506.468933 
	C942.367004,511.002655 944.594055,515.394592 946.978027,520.134033 
z"/>
<path fill="#FEFAF8" opacity="1.000000" stroke="none" 
	d="
M1160.060669,425.022522 
	C1157.019653,426.454926 1154.331299,427.754578 1151.071777,429.330383 
	C1148.314209,423.662354 1145.596313,418.076019 1142.666016,412.052856 
	C1170.472534,398.853027 1198.028076,385.772278 1226.234497,372.382599 
	C1228.972290,378.086121 1231.646240,383.656586 1234.553833,389.713959 
	C1209.573364,401.565887 1184.993408,413.227814 1160.060669,425.022522 
z"/>
<path fill="#FEFAF8" opacity="1.000000" stroke="none" 
	d="
M1023.831543,488.754761 
	C1018.554749,491.249298 1013.614014,493.573578 1008.431030,496.011841 
	C1005.652466,490.301819 1002.977600,484.804840 1000.054993,478.798676 
	C1027.733032,465.745514 1055.278198,452.754974 1083.167969,439.601868 
	C1085.991821,445.409729 1088.649780,450.876251 1091.603882,456.952148 
	C1068.932617,467.586578 1046.550049,478.085510 1023.831543,488.754761 
z"/>
<path fill="#FDFAF7" opacity="1.000000" stroke="none" 
	d="
M781.357056,580.400269 
	C786.641663,577.942566 791.599365,575.669739 796.999512,573.194092 
	C799.893433,579.022644 802.590454,584.454651 805.550110,590.415588 
	C777.715210,603.390503 750.222290,616.205994 722.171997,629.281250 
	C719.361389,623.471924 716.654846,617.877808 713.786682,611.949463 
	C736.519104,601.346375 758.774597,590.965820 781.357056,580.400269 
z"/>
<path fill="#FEFAF8" opacity="1.000000" stroke="none" 
	d="
M611.997864,679.947632 
	C600.801270,685.120117 589.951843,690.147217 578.577209,695.417725 
	C575.789490,689.604370 573.109985,684.016785 570.295410,678.147522 
	C598.103760,665.153564 625.445374,652.377686 653.196960,639.410278 
	C656.064148,645.217285 658.756958,650.670959 661.726685,656.685608 
	C645.063965,664.485840 628.704468,672.144043 611.997864,679.947632 
z"/>
<path fill="#050E22" opacity="1.000000" stroke="none" 
	d="
M239.983398,290.168762 
	C239.984116,323.798096 239.984116,356.948944 239.984116,390.504395 
	C217.402985,390.504395 195.007355,390.504395 172.329300,390.504395 
	C187.193192,356.923920 187.838272,320.924805 189.186783,284.696625 
	C206.024734,284.696625 222.758987,284.696625 239.982666,284.696625 
	C239.982666,286.449554 239.982666,288.069885 239.983398,290.168762 
z"/>
<path fill="#040E22" opacity="1.000000" stroke="none" 
	d="
M427.355896,388.533203 
	C392.560089,398.428131 359.515045,369.816467 363.306427,333.559265 
	C366.049042,307.331818 384.474670,288.149841 408.639465,286.107849 
	C439.612549,283.490540 466.272064,309.971497 462.529846,343.839874 
	C460.135590,365.508636 448.747955,380.892395 427.355896,388.533203 
z"/>
<path fill="#050E22" opacity="1.000000" stroke="none" 
	d="
M773.714050,957.642029 
	C760.984558,972.849792 742.578918,977.179871 725.999878,969.103638 
	C709.302551,960.969788 700.672241,942.073425 704.874390,922.847961 
	C708.737122,905.175537 724.051819,892.686218 742.504150,892.160522 
	C768.399353,891.422668 787.659912,917.675476 780.173401,943.876953 
	C778.829529,948.580139 776.048401,952.872681 773.714050,957.642029 
z"/>
<path fill="#071023" opacity="1.000000" stroke="none" 
	d="
M1004.986145,947.366211 
	C996.713989,947.365234 988.939880,947.365234 980.424866,947.365234 
	C986.808044,930.615723 992.931885,914.546753 999.587280,897.083008 
	C1006.056030,914.407654 1012.050110,930.461243 1018.362488,947.367188 
	C1013.623962,947.367188 1009.554016,947.367188 1004.986145,947.366211 
z"/>
</svg>